ffmpeg started on 2026-03-28 at 16:21:07
Report written to "D:\Convert\FFMetrics\reports\psnr_report-6.txt"
Log level: 32
Command line:
ffmpeg -hide_banner -nostdin -r 24000/1001 -i "F:\\\xc0\xed\xe8\xec\xe5\\\xce\xed\xe3\xee\xe8\xed\xe3\xe8\\!_40_\xce\xf1\xe5\xed\xfc_2025\\JamClub\\\xcc\xeb\xe0\xe4\xf8\xe0\xff \xf1\xe5\xf1\xf2\xf0\xe0 \xec\xee\xe5\xe3\xee \xe4\xf0\xf3\xe3\xe0 \xe4\xee\xf1\xe0\xe6\xe4\xe0\xe5\xf2\\JamClub_Tomodachi_no_Imouto_ga_Ore_ni_dake_Uzai_12_1080p_HEVC.mkv" -r 24000/1001 -i "F:\\\xc0\xed\xe8\xec\xe5\\\xce\xed\xe3\xee\xe8\xed\xe3\xe8\\!_40_\xce\xf1\xe5\xed\xfc_2025\\JamClub\\\xcc\xeb\xe0\xe4\xf8\xe0\xff \xf1\xe5\xf1\xf2\xf0\xe0 \xec\xee\xe5\xe3\xee \xe4\xf0\xf3\xe3\xe0 \xe4\xee\xf1\xe0\xe6\xe4\xe0\xe5\xf2\\JamClub_Tomodachi_no_Imouto_ga_Ore_ni_dake_Uzai_12_1080p.mp4" -lavfi "[0:v]settb=AVTB,setpts=PTS-STARTPTS,format=pix_fmts=yuv420p10le,fps=24000/1001,scale=1920:1080:flags=lanczos:param0=3:out_range=limited:out_color_matrix=bt709:out_chroma_loc=left,setsar=1/1,setdar=(1920/1080)*(1/1),colorspace=format=yuv420p10:range=tv:primaries=bt709:trc=bt709:space=bt709:fast=0[main];[1:v]settb=AVTB,setpts=PTS-STARTPTS,format=pix_fmts=yuv420p,fps=24000/1001,scale=1920:1080:flags=lanczos:param0=3:out_range=limited:out_color_matrix=bt709:out_chroma_loc=left,setsar=1/1,setdar=(1920/1080)*(1/1),colorspace=format=yuv420p:range=tv:primaries=bt709:trc=bt709:space=bt709:fast=0[ref];[main][ref]psnr=eof_action=endall:stats_file='D\\:/Convert/FFMetrics/logs/psnr_logfile-6.txt'" -f null -
Input #0, matroska,webm, from 'F:\Аниме\Онгоинги\!_40_Осень_2025\JamClub\Младшая сестра моего друга досаждает\JamClub_Tomodachi_no_Imouto_ga_Ore_ni_dake_Uzai_12_1080p_HEVC.mkv':
  Metadata:
    COMPATIBLE_BRANDS: isomiso2avc1mp41
    MAJOR_BRAND     : isom
    MINOR_VERSION   : 512
    ENCODER         : Lavf61.7.100
  Duration: 00:23:49.23, start: -0.021000, bitrate: 1129 kb/s
  Stream #0:0: Video: hevc (Main 10), yuv420p10le(tv, bt709, progressive), 1920x1080 [SAR 1:1 DAR 16:9], 23.98 fps, 23.98 tbr, 1k tbn (default)
      Metadata:
        HANDLER_NAME    : VideoHandler
        VENDOR_ID       : [0][0][0][0]
        ENCODER         : Lavc61.19.100 libx265
        BPS             : 934512
        DURATION        : 00:23:49.135708333
        NUMBER_OF_FRAMES: 34265
        NUMBER_OF_BYTES : 166943128
        _STATISTICS_WRITING_APP: mkvpropedit v94.0 ('Initiate') 64-bit
        _STATISTICS_WRITING_DATE_UTC: 2026-03-28 11:46:43
        _STATISTICS_TAGS: BPS DURATION NUMBER_OF_FRAMES NUMBER_OF_BYTES
  Stream #0:1(eng): Audio: aac (LC), 48000 Hz, stereo, fltp (default)
      Metadata:
        HANDLER_NAME    : SoundHandler
        VENDOR_ID       : [0][0][0][0]
        ENCODER         : Lavc61.19.100 aac
        BPS             : 191342
        DURATION        : 00:23:49.208000000
        NUMBER_OF_FRAMES: 66995
        NUMBER_OF_BYTES : 34183511
        _STATISTICS_WRITING_APP: mkvpropedit v94.0 ('Initiate') 64-bit
        _STATISTICS_WRITING_DATE_UTC: 2026-03-28 11:46:43
        _STATISTICS_TAGS: BPS DURATION NUMBER_OF_FRAMES NUMBER_OF_BYTES
Input #1, mov,mp4,m4a,3gp,3g2,mj2, from 'F:\Аниме\Онгоинги\!_40_Осень_2025\JamClub\Младшая сестра моего друга досаждает\JamClub_Tomodachi_no_Imouto_ga_Ore_ni_dake_Uzai_12_1080p.mp4':
  Metadata:
    major_brand     : isom
    minor_version   : 512
    compatible_brands: isomiso2avc1mp41
    encoder         : Lavf60.16.100
  Duration: 00:23:49.21, start: 0.000000, bitrate: 3666 kb/s
  Stream #1:0[0x1](und): Video: h264 (High) (avc1 / 0x31637661), yuv420p(tv, bt709, progressive), 1920x1080 [SAR 1:1 DAR 16:9], 3468 kb/s, 23.98 fps, 23.98 tbr, 90k tbn (default)
      Metadata:
        handler_name    : VideoHandler
        vendor_id       : [0][0][0][0]
  Stream #1:1[0x2](eng): Audio: aac (LC) (mp4a / 0x6134706D), 48000 Hz, stereo, fltp, 191 kb/s (default)
      Metadata:
        handler_name    : SoundHandler
        vendor_id       : [0][0][0][0]
Stream mapping:
  Stream #0:0 (hevc) -> settb:default
  Stream #1:0 (h264) -> settb:default
  psnr:default -> Stream #0:0 (wrapped_avframe)
  Stream #0:1 -> #0:1 (aac (native) -> pcm_s16le (native))
Output #0, null, to 'pipe:':
  Metadata:
    COMPATIBLE_BRANDS: isomiso2avc1mp41
    MAJOR_BRAND     : isom
    MINOR_VERSION   : 512
    encoder         : Lavf61.7.100
  Stream #0:0: Video: wrapped_avframe, yuv420p10le(tv, bt709, progressive), 1920x1080 [SAR 1:1 DAR 16:9], q=2-31, 200 kb/s, 23.98 fps, 23.98 tbn
      Metadata:
        encoder         : Lavc61.19.100 wrapped_avframe
  Stream #0:1(eng): Audio: pcm_s16le, 48000 Hz, stereo, s16, 1536 kb/s (default)
      Metadata:
        HANDLER_NAME    : SoundHandler
        VENDOR_ID       : [0][0][0][0]
        _STATISTICS_TAGS: BPS DURATION NUMBER_OF_FRAMES NUMBER_OF_BYTES
        BPS             : 191342
        DURATION        : 00:23:49.208000000
        NUMBER_OF_FRAMES: 66995
        NUMBER_OF_BYTES : 34183511
        _STATISTICS_WRITING_APP: mkvpropedit v94.0 ('Initiate') 64-bit
        _STATISTICS_WRITING_DATE_UTC: 2026-03-28 11:46:43
        encoder         : Lavc61.19.100 pcm_s16le
frame=  106 fps=0.0 q=-0.0 size=N/A time=00:00:04.42 bitrate=N/A speed= 8.7x    frame=  243 fps=238 q=-0.0 size=N/A time=00:00:10.13 bitrate=N/A speed=9.94x    frame=  392 fps=254 q=-0.0 size=N/A time=00:00:16.34 bitrate=N/A speed=10.6x    frame=  570 fps=277 q=-0.0 size=N/A time=00:00:23.77 bitrate=N/A speed=11.6x    frame=  740 fps=288 q=-0.0 size=N/A time=00:00:30.86 bitrate=N/A speed=  12x    frame=  931 fps=301 q=-0.0 size=N/A time=00:00:38.83 bitrate=N/A speed=12.6x    frame= 1112 fps=309 q=-0.0 size=N/A time=00:00:46.37 bitrate=N/A speed=12.9x    frame= 1294 fps=315 q=-0.0 size=N/A time=00:00:53.97 bitrate=N/A speed=13.1x    frame= 1487 fps=320 q=-0.0 size=N/A time=00:01:02.02 bitrate=N/A speed=13.4x    frame= 1688 fps=328 q=-0.0 size=N/A time=00:01:10.40 bitrate=N/A speed=13.7x    frame= 1888 fps=333 q=-0.0 size=N/A time=00:01:18.74 bitrate=N/A speed=13.9x    frame= 2087 fps=337 q=-0.0 size=N/A time=00:01:27.04 bitrate=N/A speed=14.1x    frame= 2274 fps=340 q=-0.0 size=N/A time=00:01:34.84 bitrate=N/A speed=14.2x    frame= 2468 fps=342 q=-0.0 size=N/A time=00:01:42.93 bitrate=N/A speed=14.3x    frame= 2658 fps=344 q=-0.0 size=N/A time=00:01:50.86 bitrate=N/A speed=14.3x    frame= 2831 fps=343 q=-0.0 size=N/A time=00:01:58.07 bitrate=N/A speed=14.3x    frame= 3028 fps=346 q=-0.0 size=N/A time=00:02:06.29 bitrate=N/A speed=14.4x    frame= 3226 fps=348 q=-0.0 size=N/A time=00:02:14.55 bitrate=N/A speed=14.5x    frame= 3425 fps=350 q=-0.0 size=N/A time=00:02:22.85 bitrate=N/A speed=14.6x    frame= 3622 fps=352 q=-0.0 size=N/A time=00:02:31.06 bitrate=N/A speed=14.7x    frame= 3818 fps=353 q=-0.0 size=N/A time=00:02:39.24 bitrate=N/A speed=14.7x    frame= 4005 fps=353 q=-0.0 size=N/A time=00:02:47.04 bitrate=N/A speed=14.7x    frame= 4202 fps=355 q=-0.0 size=N/A time=00:02:55.25 bitrate=N/A speed=14.8x    frame= 4399 fps=355 q=-0.0 size=N/A time=00:03:03.47 bitrate=N/A speed=14.8x    frame= 4589 fps=356 q=-0.0 size=N/A time=00:03:11.39 bitrate=N/A speed=14.9x    frame= 4767 fps=356 q=-0.0 size=N/A time=00:03:18.82 bitrate=N/A speed=14.8x    frame= 4937 fps=355 q=-0.0 size=N/A time=00:03:25.91 bitrate=N/A speed=14.8x    frame= 5095 fps=353 q=-0.0 size=N/A time=00:03:32.50 bitrate=N/A speed=14.7x    frame= 5261 fps=352 q=-0.0 size=N/A time=00:03:39.42 bitrate=N/A speed=14.7x    frame= 5433 fps=351 q=-0.0 size=N/A time=00:03:46.60 bitrate=N/A speed=14.7x    frame= 5609 fps=351 q=-0.0 size=N/A time=00:03:53.94 bitrate=N/A speed=14.6x    frame= 5793 fps=351 q=-0.0 size=N/A time=00:04:01.61 bitrate=N/A speed=14.7x    frame= 5982 fps=352 q=-0.0 size=N/A time=00:04:09.49 bitrate=N/A speed=14.7x    frame= 6171 fps=352 q=-0.0 size=N/A time=00:04:17.38 bitrate=N/A speed=14.7x    frame= 6365 fps=353 q=-0.0 size=N/A time=00:04:25.47 bitrate=N/A speed=14.7x    frame= 6562 fps=354 q=-0.0 size=N/A time=00:04:33.69 bitrate=N/A speed=14.7x    frame= 6726 fps=353 q=-0.0 size=N/A time=00:04:40.53 bitrate=N/A speed=14.7x    frame= 6920 fps=353 q=-0.0 size=N/A time=00:04:48.62 bitrate=N/A speed=14.7x    frame= 7115 fps=354 q=-0.0 size=N/A time=00:04:56.75 bitrate=N/A speed=14.8x    frame= 7280 fps=353 q=-0.0 size=N/A time=00:05:03.63 bitrate=N/A speed=14.7x    frame= 7447 fps=352 q=-0.0 size=N/A time=00:05:10.60 bitrate=N/A speed=14.7x    frame= 7646 fps=353 q=-0.0 size=N/A time=00:05:18.90 bitrate=N/A speed=14.7x    frame= 7841 fps=354 q=-0.0 size=N/A time=00:05:27.03 bitrate=N/A speed=14.8x    frame= 8032 fps=354 q=-0.0 size=N/A time=00:05:35.00 bitrate=N/A speed=14.8x    frame= 8218 fps=354 q=-0.0 size=N/A time=00:05:42.75 bitrate=N/A speed=14.8x    frame= 8413 fps=355 q=-0.0 size=N/A time=00:05:50.89 bitrate=N/A speed=14.8x    frame= 8604 fps=355 q=-0.0 size=N/A time=00:05:58.85 bitrate=N/A speed=14.8x    frame= 8805 fps=356 q=-0.0 size=N/A time=00:06:07.24 bitrate=N/A speed=14.8x    frame= 8996 fps=356 q=-0.0 size=N/A time=00:06:15.20 bitrate=N/A speed=14.9x    frame= 9167 fps=356 q=-0.0 size=N/A time=00:06:22.34 bitrate=N/A speed=14.8x    frame= 9360 fps=356 q=-0.0 size=N/A time=00:06:30.39 bitrate=N/A speed=14.9x    frame= 9556 fps=356 q=-0.0 size=N/A time=00:06:38.56 bitrate=N/A speed=14.9x    frame= 9739 fps=356 q=-0.0 size=N/A time=00:06:46.19 bitrate=N/A speed=14.9x    frame= 9941 fps=357 q=-0.0 size=N/A time=00:06:54.62 bitrate=N/A speed=14.9x    frame=10134 fps=357 q=-0.0 size=N/A time=00:07:02.67 bitrate=N/A speed=14.9x    frame=10342 fps=358 q=-0.0 size=N/A time=00:07:11.34 bitrate=N/A speed=14.9x    frame=10550 fps=359 q=-0.0 size=N/A time=00:07:20.02 bitrate=N/A speed=  15x    frame=10752 fps=360 q=-0.0 size=N/A time=00:07:28.44 bitrate=N/A speed=  15x    frame=10956 fps=360 q=-0.0 size=N/A time=00:07:36.95 bitrate=N/A speed=  15x    frame=11164 fps=361 q=-0.0 size=N/A time=00:07:45.63 bitrate=N/A speed=15.1x    frame=11359 fps=361 q=-0.0 size=N/A time=00:07:53.76 bitrate=N/A speed=15.1x    frame=11543 fps=361 q=-0.0 size=N/A time=00:08:01.43 bitrate=N/A speed=15.1x    frame=11753 fps=362 q=-0.0 size=N/A time=00:08:10.19 bitrate=N/A speed=15.1x    frame=11951 fps=362 q=-0.0 size=N/A time=00:08:18.45 bitrate=N/A speed=15.1x    frame=12151 fps=363 q=-0.0 size=N/A time=00:08:26.79 bitrate=N/A speed=15.1x    frame=12349 fps=363 q=-0.0 size=N/A time=00:08:35.05 bitrate=N/A speed=15.1x    frame=12562 fps=364 q=-0.0 size=N/A time=00:08:43.94 bitrate=N/A speed=15.2x    frame=12762 fps=364 q=-0.0 size=N/A time=00:08:52.28 bitrate=N/A speed=15.2x    frame=12960 fps=364 q=-0.0 size=N/A time=00:09:00.54 bitrate=N/A speed=15.2x    frame=13158 fps=365 q=-0.0 size=N/A time=00:09:08.79 bitrate=N/A speed=15.2x    frame=13337 fps=364 q=-0.0 size=N/A time=00:09:16.26 bitrate=N/A speed=15.2x    frame=13542 fps=365 q=-0.0 size=N/A time=00:09:24.81 bitrate=N/A speed=15.2x    frame=13730 fps=365 q=-0.0 size=N/A time=00:09:32.65 bitrate=N/A speed=15.2x    frame=13915 fps=365 q=-0.0 size=N/A time=00:09:40.37 bitrate=N/A speed=15.2x    frame=14100 fps=365 q=-0.0 size=N/A time=00:09:48.08 bitrate=N/A speed=15.2x    frame=14292 fps=365 q=-0.0 size=N/A time=00:09:56.09 bitrate=N/A speed=15.2x    frame=14470 fps=365 q=-0.0 size=N/A time=00:10:03.51 bitrate=N/A speed=15.2x    frame=14664 fps=365 q=-0.0 size=N/A time=00:10:11.61 bitrate=N/A speed=15.2x    frame=14857 fps=365 q=-0.0 size=N/A time=00:10:19.66 bitrate=N/A speed=15.2x    frame=15029 fps=364 q=-0.0 size=N/A time=00:10:26.83 bitrate=N/A speed=15.2x    frame=15230 fps=365 q=-0.0 size=N/A time=00:10:35.21 bitrate=N/A speed=15.2x    frame=15435 fps=365 q=-0.0 size=N/A time=00:10:43.76 bitrate=N/A speed=15.2x    frame=15639 fps=365 q=-0.0 size=N/A time=00:10:52.27 bitrate=N/A speed=15.2x    frame=15834 fps=366 q=-0.0 size=N/A time=00:11:00.40 bitrate=N/A speed=15.3x    frame=16032 fps=366 q=-0.0 size=N/A time=00:11:08.66 bitrate=N/A speed=15.3x    frame=16235 fps=366 q=-0.0 size=N/A time=00:11:17.13 bitrate=N/A speed=15.3x    frame=16428 fps=366 q=-0.0 size=N/A time=00:11:25.18 bitrate=N/A speed=15.3x    frame=16602 fps=366 q=-0.0 size=N/A time=00:11:32.44 bitrate=N/A speed=15.3x    frame=16800 fps=366 q=-0.0 size=N/A time=00:11:40.70 bitrate=N/A speed=15.3x    frame=16985 fps=366 q=-0.0 size=N/A time=00:11:48.41 bitrate=N/A speed=15.3x    frame=17181 fps=366 q=-0.0 size=N/A time=00:11:56.59 bitrate=N/A speed=15.3x    frame=17375 fps=366 q=-0.0 size=N/A time=00:12:04.68 bitrate=N/A speed=15.3x    frame=17575 fps=367 q=-0.0 size=N/A time=00:12:13.02 bitrate=N/A speed=15.3x    frame=17777 fps=367 q=-0.0 size=N/A time=00:12:21.44 bitrate=N/A speed=15.3x    frame=17967 fps=367 q=-0.0 size=N/A time=00:12:29.37 bitrate=N/A speed=15.3x    frame=18169 fps=367 q=-0.0 size=N/A time=00:12:37.79 bitrate=N/A speed=15.3x    frame=18358 fps=367 q=-0.0 size=N/A time=00:12:45.68 bitrate=N/A speed=15.3x    frame=18547 fps=367 q=-0.0 size=N/A time=00:12:53.56 bitrate=N/A speed=15.3x    frame=18729 fps=367 q=-0.0 size=N/A time=00:13:01.15 bitrate=N/A speed=15.3x    frame=18920 fps=367 q=-0.0 size=N/A time=00:13:09.12 bitrate=N/A speed=15.3x    frame=19115 fps=367 q=-0.0 size=N/A time=00:13:17.25 bitrate=N/A speed=15.3x    frame=19305 fps=367 q=-0.0 size=N/A time=00:13:25.17 bitrate=N/A speed=15.3x    frame=19461 fps=366 q=-0.0 size=N/A time=00:13:31.68 bitrate=N/A speed=15.3x    frame=19649 fps=366 q=-0.0 size=N/A time=00:13:39.52 bitrate=N/A speed=15.3x    frame=19852 fps=367 q=-0.0 size=N/A time=00:13:47.99 bitrate=N/A speed=15.3x    frame=20047 fps=367 q=-0.0 size=N/A time=00:13:56.12 bitrate=N/A speed=15.3x    frame=20244 fps=367 q=-0.0 size=N/A time=00:14:04.34 bitrate=N/A speed=15.3x    frame=20433 fps=367 q=-0.0 size=N/A time=00:14:12.22 bitrate=N/A speed=15.3x    frame=20627 fps=367 q=-0.0 size=N/A time=00:14:20.31 bitrate=N/A speed=15.3x    frame=20826 fps=367 q=-0.0 size=N/A time=00:14:28.61 bitrate=N/A speed=15.3x    frame=21023 fps=367 q=-0.0 size=N/A time=00:14:36.83 bitrate=N/A speed=15.3x    frame=21226 fps=367 q=-0.0 size=N/A time=00:14:45.30 bitrate=N/A speed=15.3x    frame=21421 fps=368 q=-0.0 size=N/A time=00:14:53.43 bitrate=N/A speed=15.3x    frame=21627 fps=368 q=-0.0 size=N/A time=00:15:02.02 bitrate=N/A speed=15.3x    frame=21775 fps=367 q=-0.0 size=N/A time=00:15:08.19 bitrate=N/A speed=15.3x    frame=21973 fps=367 q=-0.0 size=N/A time=00:15:16.45 bitrate=N/A speed=15.3x    frame=22126 fps=367 q=-0.0 size=N/A time=00:15:22.83 bitrate=N/A speed=15.3x    frame=22305 fps=366 q=-0.0 size=N/A time=00:15:30.30 bitrate=N/A speed=15.3x    frame=22469 fps=366 q=-0.0 size=N/A time=00:15:37.14 bitrate=N/A speed=15.3x    frame=22658 fps=366 q=-0.0 size=N/A time=00:15:45.02 bitrate=N/A speed=15.3x    frame=22830 fps=366 q=-0.0 size=N/A time=00:15:52.20 bitrate=N/A speed=15.3x    frame=22999 fps=366 q=-0.0 size=N/A time=00:15:59.24 bitrate=N/A speed=15.2x    frame=23177 fps=365 q=-0.0 size=N/A time=00:16:06.67 bitrate=N/A speed=15.2x    frame=23359 fps=365 q=-0.0 size=N/A time=00:16:14.26 bitrate=N/A speed=15.2x    frame=23514 fps=365 q=-0.0 size=N/A time=00:16:20.72 bitrate=N/A speed=15.2x    frame=23693 fps=365 q=-0.0 size=N/A time=00:16:28.19 bitrate=N/A speed=15.2x    frame=23879 fps=365 q=-0.0 size=N/A time=00:16:35.95 bitrate=N/A speed=15.2x    frame=24066 fps=365 q=-0.0 size=N/A time=00:16:43.75 bitrate=N/A speed=15.2x    frame=24265 fps=365 q=-0.0 size=N/A time=00:16:52.05 bitrate=N/A speed=15.2x    frame=24457 fps=365 q=-0.0 size=N/A time=00:17:00.06 bitrate=N/A speed=15.2x    frame=24654 fps=365 q=-0.0 size=N/A time=00:17:08.27 bitrate=N/A speed=15.2x    frame=24854 fps=365 q=-0.0 size=N/A time=00:17:16.61 bitrate=N/A speed=15.2x    frame=25064 fps=365 q=-0.0 size=N/A time=00:17:25.37 bitrate=N/A speed=15.2x    frame=25259 fps=366 q=-0.0 size=N/A time=00:17:33.51 bitrate=N/A speed=15.2x    frame=25461 fps=366 q=-0.0 size=N/A time=00:17:41.93 bitrate=N/A speed=15.3x    frame=25662 fps=366 q=-0.0 size=N/A time=00:17:50.31 bitrate=N/A speed=15.3x    frame=25865 fps=366 q=-0.0 size=N/A time=00:17:58.78 bitrate=N/A speed=15.3x    frame=26075 fps=366 q=-0.0 size=N/A time=00:18:07.54 bitrate=N/A speed=15.3x    frame=26277 fps=367 q=-0.0 size=N/A time=00:18:15.96 bitrate=N/A speed=15.3x    frame=26478 fps=367 q=-0.0 size=N/A time=00:18:24.35 bitrate=N/A speed=15.3x    frame=26679 fps=367 q=-0.0 size=N/A time=00:18:32.73 bitrate=N/A speed=15.3x    frame=26889 fps=367 q=-0.0 size=N/A time=00:18:41.49 bitrate=N/A speed=15.3x    frame=27080 fps=367 q=-0.0 size=N/A time=00:18:49.46 bitrate=N/A speed=15.3x    frame=27275 fps=367 q=-0.0 size=N/A time=00:18:57.59 bitrate=N/A speed=15.3x    frame=27472 fps=367 q=-0.0 size=N/A time=00:19:05.81 bitrate=N/A speed=15.3x    frame=27664 fps=367 q=-0.0 size=N/A time=00:19:13.81 bitrate=N/A speed=15.3x    frame=27861 fps=368 q=-0.0 size=N/A time=00:19:22.03 bitrate=N/A speed=15.3x    frame=28072 fps=368 q=-0.0 size=N/A time=00:19:30.83 bitrate=N/A speed=15.3x    frame=28263 fps=368 q=-0.0 size=N/A time=00:19:38.80 bitrate=N/A speed=15.3x    frame=28464 fps=368 q=-0.0 size=N/A time=00:19:47.18 bitrate=N/A speed=15.3x    frame=28661 fps=368 q=-0.0 size=N/A time=00:19:55.40 bitrate=N/A speed=15.4x    frame=28860 fps=368 q=-0.0 size=N/A time=00:20:03.70 bitrate=N/A speed=15.4x    frame=29049 fps=368 q=-0.0 size=N/A time=00:20:11.58 bitrate=N/A speed=15.4x    frame=29254 fps=368 q=-0.0 size=N/A time=00:20:20.13 bitrate=N/A speed=15.4x    frame=29451 fps=368 q=-0.0 size=N/A time=00:20:28.35 bitrate=N/A speed=15.4x    frame=29625 fps=368 q=-0.0 size=N/A time=00:20:35.60 bitrate=N/A speed=15.4x    frame=29808 fps=368 q=-0.0 size=N/A time=00:20:43.24 bitrate=N/A speed=15.4x    frame=29987 fps=368 q=-0.0 size=N/A time=00:20:50.70 bitrate=N/A speed=15.4x    frame=30185 fps=368 q=-0.0 size=N/A time=00:20:58.96 bitrate=N/A speed=15.4x    frame=30376 fps=368 q=-0.0 size=N/A time=00:21:06.93 bitrate=N/A speed=15.4x    frame=30555 fps=368 q=-0.0 size=N/A time=00:21:14.39 bitrate=N/A speed=15.4x    frame=30754 fps=368 q=-0.0 size=N/A time=00:21:22.69 bitrate=N/A speed=15.4x    frame=30947 fps=368 q=-0.0 size=N/A time=00:21:30.74 bitrate=N/A speed=15.4x    frame=31136 fps=368 q=-0.0 size=N/A time=00:21:38.63 bitrate=N/A speed=15.4x    frame=31346 fps=368 q=-0.0 size=N/A time=00:21:47.38 bitrate=N/A speed=15.4x    frame=31543 fps=368 q=-0.0 size=N/A time=00:21:55.60 bitrate=N/A speed=15.4x    frame=31735 fps=369 q=-0.0 size=N/A time=00:22:03.61 bitrate=N/A speed=15.4x    frame=31930 fps=369 q=-0.0 size=N/A time=00:22:11.74 bitrate=N/A speed=15.4x    frame=32092 fps=368 q=-0.0 size=N/A time=00:22:18.50 bitrate=N/A speed=15.4x    frame=32227 fps=368 q=-0.0 size=N/A time=00:22:24.13 bitrate=N/A speed=15.3x    frame=32397 fps=367 q=-0.0 size=N/A time=00:22:31.22 bitrate=N/A speed=15.3x    frame=32561 fps=367 q=-0.0 size=N/A time=00:22:38.06 bitrate=N/A speed=15.3x    frame=32751 fps=367 q=-0.0 size=N/A time=00:22:45.98 bitrate=N/A speed=15.3x    frame=32901 fps=367 q=-0.0 size=N/A time=00:22:52.24 bitrate=N/A speed=15.3x    frame=33081 fps=367 q=-0.0 size=N/A time=00:22:59.75 bitrate=N/A speed=15.3x    frame=33256 fps=366 q=-0.0 size=N/A time=00:23:07.05 bitrate=N/A speed=15.3x    frame=33436 fps=366 q=-0.0 size=N/A time=00:23:14.55 bitrate=N/A speed=15.3x    frame=33561 fps=366 q=-0.0 size=N/A time=00:23:19.77 bitrate=N/A speed=15.2x    frame=33705 fps=365 q=-0.0 size=N/A time=00:23:25.77 bitrate=N/A speed=15.2x    frame=33857 fps=365 q=-0.0 size=N/A time=00:23:32.11 bitrate=N/A speed=15.2x    frame=34017 fps=364 q=-0.0 size=N/A time=00:23:38.79 bitrate=N/A speed=15.2x    frame=34177 fps=364 q=-0.0 size=N/A time=00:23:45.46 bitrate=N/A speed=15.2x    [Parsed_psnr_16 @ 00000234f3f1bec0] PSNR y:48.937235 u:51.539130 v:50.752224 average:49.552273 min:37.690439 max:inf
[out#0/null @ 00000234f373ae00] video:14723KiB audio:267980KiB subtitle:0KiB other streams:0KiB global headers:0KiB muxing overhead: unknown
frame=34265 fps=364 q=-0.0 Lsize=N/A time=00:23:49.13 bitrate=N/A speed=15.2x    
